<?xml version="1.0" encoding="utf-8"?>
<!-- Generator: Adobe Illustrator 22.0.0, SVG Export Plug-In . SVG Version: 6.00 Build 0)  -->
<svg version="1.1" xmlns="http://www.w3.org/2000/svg" xmlns:xlink="http://www.w3.org/1999/xlink" x="0px" y="0px"
	 viewBox="0 0 249 428" style="enable-background:new 0 0 249 428;" xml:space="preserve">
<style type="text/css">
	.st0{display:none;}
	.st1{display:inline;fill-rule:evenodd;clip-rule:evenodd;fill:#F26422;}
	.st2{display:inline;fill:#F26422;}
	.st3{display:inline;opacity:0.21;fill:#263238;}
	.st4{display:inline;opacity:0.1;enable-background:new    ;}
	.st5{display:inline;fill:none;stroke:#3F3D56;stroke-width:0.6276;stroke-miterlimit:10;}
	.st6{display:inline;fill:#263238;}
	.st7{display:inline;fill:#F2F2F2;}
	.st8{display:inline;fill:#A0616A;}
	.st9{display:inline;fill:#535070;}
	.st10{display:inline;fill:#FFFFFF;}
	.st11{display:inline;fill:#57B894;}
	.st12{display:inline;fill:#CBCEDA;}
	.st13{display:inline;opacity:0.2;fill:#2979FF;enable-background:new    ;}
	.st14{display:inline;fill:none;stroke:#FFFFFF;stroke-width:1.2848;stroke-miterlimit:10;}
	.st15{display:inline;fill:none;stroke:#F26422;stroke-width:0.6424;stroke-miterlimit:10;}
	.st16{display:inline;fill:url(#SVGID_1_);}
	.st17{display:inline;}
	.st18{display:inline;fill:#3C354C;}
	.st19{display:inline;fill:#8C6239;}
	.st20{display:inline;fill:url(#SVGID_2_);}
	.st21{display:inline;fill:#754C24;}
	.st22{fill:#FFFFFF;}
	.st23{display:inline;fill:none;stroke:#3F3D56;stroke-width:4.613176e-02;stroke-miterlimit:10;}
	.st24{fill:#F2F2F2;}
	.st25{fill:#3F3D56;}
	.st26{fill:#302F45;}
	.st27{opacity:0.3;fill:#F26422;enable-background:new    ;}
	.st28{fill:none;stroke:#3F3D56;stroke-width:0.3927;stroke-miterlimit:10;}
	.st29{fill:#F26422;}
	.st30{fill:#A0616A;}
	.st31{fill:#E6E6F0;}
	.st32{opacity:0.1;enable-background:new    ;}
	.st33{fill:#3C354C;}
	.st34{fill:none;stroke:#3F3D56;stroke-width:3.009867e-02;stroke-miterlimit:10;}
</style>
<g id="Layer_1" class="st0">
	<polyline class="st1" points="125.2,138.9 252,138.9 252,387.6 -1.6,387.6 -1.6,175.2 35.4,175.2 35.4,351 215,351 215,175.2 
		125.2,175.2 	"/>
	<ellipse class="st1" cx="125.2" cy="263.2" rx="47.6" ry="46.7"/>
	<ellipse class="st1" cx="125.2" cy="62" rx="22" ry="21.6"/>
	<rect x="118.7" y="69.8" class="st2" width="12.8" height="193.4"/>
</g>
<g id="Layer_2" class="st0">
	<ellipse class="st3" cx="120.5" cy="373" rx="322.6" ry="13.2"/>
	<path class="st2" d="M227.5,369H-14c-16.5,0-29.9-13.4-29.9-29.9l0,0V228.5c0-3.2,1.3-6.4,3.7-8.6l128-121.3
		c10.6-10.1,27.3-10.1,37.9,0l122,115.7c6.2,5.8,9.6,14,9.6,22.4v102.4C257.4,355.6,244,369,227.5,369L227.5,369z"/>
	<path class="st4" d="M-43.9,230.3h298.7l0,0v120.7c0,10-8.1,18-18,18c0,0,0,0,0,0H-25.8c-10,0-18-8.1-18-18l0,0L-43.9,230.3
		L-43.9,230.3L-43.9,230.3z"/>
	<path class="st5" d="M-44.2,223.1"/>
	<path class="st6" d="M11.8,135.2h189.3c9.1,0,16.4,7.4,16.4,16.4v189.3c0,9.1-7.4,16.4-16.4,16.4H11.8c-9.1,0-16.4-7.4-16.4-16.4
		V151.6C-4.6,142.6,2.7,135.2,11.8,135.2z"/>
	<polygon class="st4" points="217.5,235.3 217.5,357.4 -4.6,357.4 -4.6,235.3 106.4,289 	"/>
	<path class="st2" d="M106.4,295.9l-142.3-68.8c-2.9-1.4-6.3-0.2-7.7,2.7c-0.4,0.8-0.6,1.6-0.6,2.5v118.4c0,10,8.1,18,18,18l0,0H239
		c10,0,18-8.1,18-18c0,0,0,0,0,0V234.3c0-3.9-3.2-7-7-7c-1.1,0-2.1,0.2-3.1,0.7L106.4,295.9z"/>
	<rect x="14.5" y="155.6" class="st7" width="62.1" height="8.8"/>
	<rect x="9.5" y="187.6" class="st7" width="184.5" height="5"/>
	<rect x="9.5" y="204.5" class="st7" width="184.5" height="5"/>
	<rect x="9.5" y="221.5" class="st7" width="184.5" height="5"/>
	<path class="st8" d="M256.6,88.9c-0.4,3.4-2.9,6.1-3.9,9.3c-1.4,4.9,1,10.1,4.4,13.9c5.5,6.1,13.2,9.8,21.5,10.2
		c1.2,0.1,2.4,0,3.6-0.4c1-0.4,1.9-1,2.7-1.8c2.5-2.6,3.9-6.1,4.5-9.7c0.5-3.6,0.3-7.2,0.1-10.8c0-0.7-0.1-1.5-0.4-2.2
		c-0.3-0.7-0.8-1.2-1.4-1.7c-1.8-1.7-3.9-3.1-6-4.4c-1-0.4-1.8-1.1-2.5-1.9c-0.4-0.7-0.7-1.5-0.8-2.3l-0.7-3.4c-0.1-1-0.5-1.9-1-2.7
		c-1.2-1.6-3.4-1.8-5.4-1.9l-7.2-0.3c-2.2-0.1-5.2-0.7-7.4-0.3c-2,0.4-1.4,2.3-1,4C256.2,84.7,256.5,86.8,256.6,88.9z"/>
	<path class="st4" d="M256.6,88.9c-0.4,3.4-2.9,6.1-3.9,9.3c-1.4,4.9,1,10.1,4.4,13.9c5.5,6.1,13.2,9.8,21.5,10.2
		c1.2,0.1,2.4,0,3.6-0.4c1-0.4,1.9-1,2.7-1.8c2.5-2.6,3.9-6.1,4.5-9.7c0.5-3.6,0.3-7.2,0.1-10.8c0-0.7-0.1-1.5-0.4-2.2
		c-0.3-0.7-0.8-1.2-1.4-1.7c-1.8-1.7-3.9-3.1-6-4.4c-1-0.4-1.8-1.1-2.5-1.9c-0.4-0.7-0.7-1.5-0.8-2.3l-0.7-3.4c-0.1-1-0.5-1.9-1-2.7
		c-1.2-1.6-3.4-1.8-5.4-1.9l-7.2-0.3c-2.2-0.1-5.2-0.7-7.4-0.3c-2,0.4-1.4,2.3-1,4C256.2,84.7,256.5,86.8,256.6,88.9z"/>
	<path class="st6" d="M302.5,240.2c-1,11.2-2,22.4-3.1,33.6c-0.8,8.8-1.6,17.7-3.2,26.4c-0.5,3-1.2,6-1.9,8.9
		c-2.1,8.2-5.1,16.3-6.1,24.7c0,0.2-0.1,0.5-0.1,0.7c-0.1,1.9-0.5,3.7-1,5.5c-0.5,1.3-1.2,2.5-1.8,3.7c-1.1,2.5-1.2,5.4-1.3,8.1
		c-3.7-2.1-7.8-3.5-12-4.1c-2-0.3-4.3-0.5-5.7-2c-1.5-1.7-1.4-4.3-1.1-6.5c0.8-7,1.6-14,2.4-21.1c0.3-3,0.8-6,1.5-8.9
		c0.3-1,0.6-1.9,1-2.9c0.5-1.3,0.9-2.6,1.3-4c0.5-2.2,0.9-4.4,1.1-6.7c0.8-7.1,1.8-14.1,2.7-21.2l0-0.4c1.3-10.7,2.3-21.5,2-32.2
		c0-1.6-0.1-3.2-0.2-4.8c-0.1-2.3-0.4-3.5,1.6-5c2.1-1.6,4.9-2.7,7.3-3.8c1.3-0.6,15.7-5.7,16-4.6c0.7,2.4,1,4.9,1.1,7.3
		C303,234.1,302.9,237.2,302.5,240.2z"/>
	<path class="st4" d="M296.3,300.2c-0.5,3-1.2,6-1.9,8.9c-2.1,8.2-5.1,16.3-6.1,24.7c0,0.2-0.1,0.5-0.1,0.7
		c-6.4-9.2-11.8-19-18.1-28.3c0.5-1.3,0.9-2.6,1.3-4c0.5-2.2,0.9-4.4,1.1-6.7c0.8-7.1,1.8-14.1,2.7-21.2l0-0.4
		c0.4,1.5,0.9,3,1.6,4.3c4.2,8.5,14.2,12.9,19.1,21C296,299.7,296.1,300,296.3,300.2z"/>
	<path class="st6" d="M244.2,225.1c0.2,6.9,1.3,13.6,2.4,20.4l2.3,14c1.2,7.6,2.5,15.4,6.1,22.3c2.7,5.1,6.6,9.5,10.1,14.1
		c8.7,11.3,15.2,24.1,23.4,35.7c2.4,3.4,5.8,7,9.9,6.3c2.7-0.5,4.6-2.7,6.7-4.4c2.5-2,5.5-3.5,7.4-6c2-2.5,2.3-6.8-0.3-8.6
		c-1-0.5-2-0.9-3-1.2c-4.1-1.6-6.8-5.6-8.4-9.6s-2.7-8.4-5-12.2c-4.9-8.2-14.9-12.5-19.1-21c-2.4-4.8-2.6-10.3-2.8-15.6l-0.5-13.6
		c-0.1-1.5-0.1-3,0.5-4.4c1.6-3.6,6.5-4,10.4-4.4c4.5-0.5,8.8-1.9,12.7-4c2.3-1.2,4.5-2.8,5.7-5.1c1.1-2.1,1.3-4.5,1.4-6.8l1.4-24.6
		c0.1-2.1,0.2-4.3-0.5-6.3c-1.9-5-8.2-6.6-13.5-6.4c-9.9,0.4-19.1,4.7-28.4,7.6c-2.3,0.7-4.7,1.3-7,1.8c-2.1,0.4-4.6,0.2-6.6,0.9
		c-3.6,1.2-3.5,9-4,12.2C244.5,212.4,244.1,218.7,244.2,225.1z"/>
	<path class="st9" d="M297.1,338.9c0.9,0.9,1.2,2.2,1.4,3.4c1.3,6.8,1.9,13.6,2,20.5c-0.1,0.6,0.1,1.3,0.4,1.9
		c0.2,0.3,0.6,0.6,1,0.8c2.5,1.2,5.5-0.5,7.6-2.3c3.9-3.4,7.2-8,7.4-13.2c0-1.3,0-2.7,0.1-4c0.3-2,1.5-3.7,2.5-5.4
		c1.7-2.9,3.1-6,4.1-9.2c0.4-1.2,0.6-2.7-0.3-3.6c-0.3-0.3-0.7-0.5-1.1-0.6l-11.4-4.2c-1-0.4-3.4,6-3.8,6.6c-1,1.7-1.9,2.6-3.8,3
		c-2,0.4-4.3-0.2-6.1,0.8C293.8,335.1,295.3,337.2,297.1,338.9z"/>
	<path class="st9" d="M279.5,342.8c-0.2-0.4-0.5-0.8-0.9-1.1c-0.5-0.3-1.1-0.5-1.8-0.6c-2.2-0.4-4.7-0.6-6.2,1
		c-1.4,1.5-1.2,4-2.3,5.7c-0.4,0.5-0.9,1-1.2,1.5c-0.4,0.9-0.6,1.8-0.5,2.8c-0.1,2.6-0.1,5.3,0.1,7.9c0.2,2.2,0.5,4.5,1.9,6.2
		c2.2,2.8,6.2,3.2,9.7,3.3l2.9,0.1c0.8,0.1,1.6,0,2.3-0.2c0.9-0.4,1.7-1.2,2-2.2c1.5-3.7-0.9-7.7-2.3-11.4
		C281.5,351.6,281.8,346.9,279.5,342.8z"/>
	<path class="st6" d="M255.8,70c0-0.4,0-0.8,0.2-1.1c0.4-0.7,1.5-0.5,2.3-0.3c3.3,0.8,6.8,0.1,10.2,0.3c3.4,0.2,7.3,1.9,8,5.3
		c2.5-1.8,4.6-4,6.3-6.5c0.9-1.4,1.8-3,1.6-4.8c-0.2-2.5-2.2-4.3-4.2-5.9l-5.7-4.6c-0.7-0.7-1.6-1.2-2.5-1.6
		c-1.3-0.4-2.7-0.2-4.1-0.2c-4.1,0-8.6-1.9-12.3,0c-1.5,0.8-2.7,2.1-3.8,3.5l-5.1,6c-0.4,0.4-0.7,0.9-0.8,1.4
		c-0.1,0.7,0.2,1.5,0.4,2.2c0.2,1.3-0.3,2.8,0.1,4.1c0.7,2.1,3.3,2.4,4.9,3.7c0.6,0.5,1.5,2,2.2,2C254.9,73.3,255.7,71,255.8,70z"/>
	<circle class="st8" cx="264.4" cy="71.5" r="16.3"/>
	<path class="st2" d="M268.2,107.1c-1.1-3.2-4.2-5.4-7.7-5.3c-0.5,0.1-1,0-1.4-0.2c-0.2-0.2-0.4-0.4-0.6-0.7c-1-1.8-1.8-3.7-2.4-5.6
		c-0.3-0.9-0.6-1.9-1.5-2.1c-0.7-0.1-1.5,0.2-1.9,0.8c-0.4,0.6-0.9,1.2-1.4,1.7c-2,1.8-5.7,0.2-7.8,1.8c-0.4,0.3-0.6,0.6-1,0.9
		c-0.4,0.2-0.8,0.4-1.2,0.5c-4.2,1.4-8.3,3-12.3,4.8c1.4,8.7,2.9,17.6,6.3,25.7c1.6,3.9,3.4,7.7,4.7,11.7c2.9,8.9,3,18.3,3,27.6
		c0,6.4,0,12.9-2.1,18.9c-0.6,1.3-0.9,2.7-1.2,4.2c-0.1,1.4,0.3,3,1.5,3.9c0.7,0.4,1.4,0.7,2.2,0.8c3.6,0.5,7.2-0.4,10.7-1.2
		c9.4-2.2,19-3.4,28.6-4.7l16.1-2.1c1.2-0.1,2.3-0.4,3.3-0.9c2.9-1.6,3.2-6,1.4-8.8c-0.9-1.3-2.1-2.5-2.8-3.9s-0.8-3.4,0.5-4.4
		c2.6-2,1.8-5.7,1.9-9c0.3-9.1,0.3-18.3-0.1-27.4c-0.1-1.9-0.2-3.8-0.1-5.7c0.3-3.2,0.9-6.4,1.8-9.5l4.9-19.2c-1.3-2-3.7-3.3-6-3.9
		c-2.3-0.6-4.7-0.8-7-1.5c-4.7-1.4-8.8-5.1-13.7-4.8c-0.4,0-0.7,0.1-1.1,0.3c-1.1,0.6-0.9,2.2-1,3.5c-0.2,2.8-2.2,5.1-4.5,6.8
		c-2.3,1.6-4.9,2.8-6.9,4.7C268.7,105.3,268.2,106.1,268.2,107.1z"/>
	<path class="st8" d="M203.7,125.3c-1.1,0.7-2.2,1.3-3.4,1.8c-1.2,0.3-2.3,0.9-3.3,1.6c-0.5,0.4-0.8,0.9-1.1,1.4
		c-1.7,3-0.6,6.8,2.4,8.5c1,0.6,2.2,0.9,3.4,0.8c1.5-0.2,2.9-0.6,4.3-1.3l11.5-5c1.9-0.8,4-1.8,5-3.7c0.1-0.2,0.1-0.4,0.1-0.6
		c-0.1-0.2-0.3-0.4-0.5-0.5c-2.6-1.7-4.9-3.8-6.7-6.3c-0.5-0.6-1-2.1-1.7-2.5C211.2,118.1,205.7,124,203.7,125.3z"/>
	<path class="st8" d="M326.4,121.2l4.2,4.8c0.9,1,1.8,2.1,2.6,3.2c2,2.8,3.7,5.9,4.8,9.1c0.9,2.4,1.7,5,1.4,7.5
		c-0.2,1.3-0.6,2.6-1.1,3.8c-0.8,2.4-1.7,4.7-2.9,6.9c-1,1.7-2,3.3-3.2,4.8c-3.3,4.3-6.9,8.4-10.7,12.3c-1.4,1.4-2.1,3.7-2.7,5.7
		c-1.2,3.6-3.9,6.4-6.6,9c-0.9,0.9-1.8,1.7-2.8,2.4c-1.5,1-3.3,1.5-5.2,1.5c-0.8,0-1.6-0.2-2.3-0.5c-1.8-0.9-2.8-3-2.9-5
		c-0.2-1.8,0.1-3.7,0.9-5.3c2.4-5.4,8.7-7.7,13.1-11.6c2.6-2.3,4.6-5.2,6.5-8.1c1.3-1.8,2.4-3.7,3.3-5.8c1-2.6,0.6-5.7,1.5-8.4
		c0.4-1.1,1-2.1,1.4-3.3c0.4-1.1,0.5-2.4-0.2-3.4c-0.5-0.6-1.2-1.1-1.9-1.4c-2.8-1.4-6-3.3-6.5-6.4c-0.2-1.7,0.2-3.5,1.3-4.9
		c1-1.4,2.2-2.6,3.6-3.7C323.1,123.5,325.2,122.3,326.4,121.2z"/>
	<path class="st8" d="M201,132.1c-0.7-1.5-1.7-3-3.2-3.8c-1.5-0.6-3.2-0.6-4.6,0c-1.5,0.6-2.8,1.5-4.1,2.5l-3.6,2.7
		c-0.8,0.5-1.6,1.2-2.2,2c-0.6,0.9-1,2-1.1,3.1c-0.6,2.5-0.8,5.1-0.6,7.7c0.6,4.1,3.1,7.7,5.8,10.8c1.7,2,3.8,3.9,6.4,4
		c1.1,0,2.4-0.4,2.8-1.4c0.2-0.4,0.2-0.8,0.3-1.3c0.3-4.6-1.4-9.1-3.3-13.2c-0.6-1.1-1-2.3-1.1-3.6c0-0.2,0-0.4,0.2-0.6
		c0.2-0.2,0.4-0.3,0.6-0.3c2.6-0.5,7.1,1.5,9-1.4C203.5,137.3,201.8,133.8,201,132.1z"/>
	<path class="st6" d="M254.9,64.9c0-0.4,0-0.8,0.2-1.1c0.4-0.7,1.5-0.5,2.3-0.3c3.3,0.8,6.8,0.1,10.2,0.3c3.4,0.2,7.3,1.9,8,5.3
		c2.5-1.8,4.6-4,6.3-6.5c0.9-1.4,1.8-3,1.6-4.8c-0.2-2.5-2.2-4.3-4.2-5.9l-5.7-4.6c-0.7-0.7-1.6-1.2-2.5-1.6
		c-1.3-0.4-2.7-0.2-4.1-0.2c-4.1,0-8.6-1.9-12.3,0c-1.5,0.8-2.7,2.1-3.8,3.5l-5.1,6c-0.4,0.4-0.7,0.9-0.8,1.4
		c-0.1,0.7,0.2,1.5,0.4,2.2c0.2,1.3-0.3,2.8,0.1,4.1c0.7,2.1,3.3,2.4,4.9,3.7c0.6,0.5,1.5,2,2.2,2C254,68.1,254.9,65.9,254.9,64.9z"
		/>
	<path class="st2" d="M220.4,109.5c-0.7,0.4-1.2,1-1.7,1.6c-0.6,0.9-0.7,2-1.2,3c-1.1,2-3.7,2.8-5.3,4.4c-0.3,0.2-0.4,0.5-0.5,0.9
		c0,0.5,0.1,0.9,0.4,1.2l7.7,12.1c2.6,0.2,5-1.4,7.6-1.2c1,0.1,1.9,0.4,2.9,0.1c0.7-0.3,1.3-0.7,1.8-1.1c1.5-1,3.6-1.1,4.9-2.4
		c1.2-1.2,1.4-3.1,1.4-4.9c0-1.5-0.1-3-0.5-4.5c-1.1-4.7-4.7-8.2-6.9-12.4c-1.1-2-1.7-3.2-4-1.8C224.7,106,222.5,107.9,220.4,109.5z
		"/>
	<path class="st2" d="M314.1,103.3c1.5,0.9,2.8,2.1,3.9,3.4c1.2,1.5,1.8,3.4,3,4.9c1.1,1.5,2.6,2.7,3.8,4.1c1.9,2.1,3.2,4.7,4.4,7.2
		c-3.1,4-6.4,7.8-10,11.3c-0.4,0.5-0.9,0.8-1.5,1c-0.8,0.1-1.6-0.2-2.1-0.9c-0.6-0.6-0.9-1.3-1.5-1.9c-1.3-1.3-2.9-2.1-4.7-2.3
		c-1.8-0.2-3.6-0.2-5.3-0.1c-0.4,0-0.8,0-1.1-0.2c-0.3-0.2-0.5-0.4-0.6-0.7c-2.1-3.6-1.4-8-0.7-12.1l1.7-9.3
		c0.2-1.8,0.7-3.5,1.4-5.2c0.6-1.4,2.1-3.7,3.8-3.3C310.2,99.7,312.6,102.3,314.1,103.3z"/>
	<ellipse class="st10" cx="4.5" cy="138.7" rx="25.7" ry="25.8"/>
	<path class="st11" d="M4.5,108.5c-17,0-30.8,13.8-30.8,30.8S-12.5,170,4.5,170s30.8-13.8,30.8-30.8
		C35.2,122.3,21.4,108.6,4.5,108.5z M-1.9,155.7l-15.8-15.8l4.4-4.4l11.4,11.4l24-24l4.4,4.4L-1.9,155.7L-1.9,155.7z"/>
</g>
<g id="Layer_4" class="st0">
	<path class="st6" d="M358.7,39.4v225.2c0,2.6-2.1,4.6-4.6,4.6c0,0,0,0,0,0h-459c-2.6,0-4.6-2.1-4.6-4.6c0,0,0,0,0,0V39.4
		c0-2.6,2.1-4.6,4.6-4.6c0,0,0,0,0,0h459C356.7,34.8,358.7,36.9,358.7,39.4z"/>
	<path class="st12" d="M358.7,37.9v10.4h-468.3V37.9c0-1.7,1.4-3.1,3.1-3.1h462.1C357.4,34.8,358.7,36.2,358.7,37.9z"/>
	<circle class="st2" cx="-99.3" cy="41.2" r="3.2"/>
	<circle class="st2" cx="-90.3" cy="41.2" r="3.2"/>
	<circle class="st2" cx="-81.3" cy="41.2" r="3.2"/>
	<path class="st13" d="M283.5,192.8v38.7l-318.1,0.2l-0.3-77.3c3.4,9.9,11.7,11.7,26.3-5.8c35.7-42.6,84.2-53.8,121.7-55
		c25.7-0.8,51.3,4.5,75.8,15c10.2,4.4,50.3,9.1,76.8,11.2c10,0.8,17.7,9.1,17.7,19.1L283.5,192.8z"/>
	<path class="st13" d="M283.5,155v76.8H-34.9v-16.7c9.1-2.3,43.1-11.1,59.5-35.5c19.5-29.2,46.1-36.8,66.6-37.6
		c14.1-0.6,28.1,3.1,41.5,10.3c15,8.1,44,17.9,66.1-10.5c24.4-31.4,61.8-5.5,71.3,4C273.4,149.1,283.5,155,283.5,155z"/>
	<polyline class="st14" points="-34.9,73.5 -34.9,230.6 283.5,230.6 	"/>
	<line class="st15" x1="5.2" y1="230.6" x2="5.2" y2="134.8"/>
	<line class="st15" x1="43.8" y1="230.6" x2="43.8" y2="109.2"/>
	<line class="st15" x1="82.5" y1="230.6" x2="82.5" y2="97"/>
	<line class="st15" x1="121.1" y1="230.6" x2="121.1" y2="93.2"/>
	<line class="st15" x1="159.8" y1="230.6" x2="159.8" y2="97.4"/>
	<line class="st15" x1="198.4" y1="230.6" x2="198.4" y2="113"/>
	<line class="st15" x1="237.1" y1="230.6" x2="237.1" y2="121"/>
	<circle class="st2" cx="5" cy="133.6" r="7.1"/>
	<circle class="st2" cx="43.6" cy="109.2" r="7.1"/>
	<circle class="st2" cx="82.3" cy="97.4" r="7.1"/>
	<ellipse transform="matrix(0.1602 -0.9871 0.9871 0.1602 9.5049 197.664)" class="st2" cx="120.9" cy="93.2" rx="7.1" ry="7.1"/>
	<circle class="st2" cx="159.6" cy="97.4" r="7.1"/>
	<circle class="st2" cx="198.2" cy="113.4" r="7.1"/>
	<circle class="st2" cx="236.9" cy="121.8" r="7.1"/>
	<ellipse class="st3" cx="124.5" cy="379.7" rx="330.2" ry="13.5"/>
	
		<linearGradient id="SVGID_1_" gradientUnits="userSpaceOnUse" x1="-2488.6023" y1="-38.7654" x2="-2488.6023" y2="263.2181" gradientTransform="matrix(-1 0 0 -1 -2614 349.5)">
		<stop  offset="0" style="stop-color:#808080;stop-opacity:0.25"/>
		<stop  offset="0.54" style="stop-color:#808080;stop-opacity:0.12"/>
		<stop  offset="1" style="stop-color:#808080;stop-opacity:0.1"/>
	</linearGradient>
	<path class="st16" d="M-168.7,145.1c0,0.6-0.2,1.1-0.5,1.6c2.6-0.1,4.8-1.8,7.2-2.6c-0.4,2.5,0,5.4,0.3,7.6c0.3,2.1,0.8,4.1,1.5,6
		c1.6,7,4.6,13.8,7.2,20.6c1.1,2.7,2,5.4,2.6,8.3c1.8,10.8-4.4,21.3-5.6,32.2c-0.1,0.6-0.1,1.2,0,1.8c-0.1,0.1-0.2,0.2-0.3,0.4
		c-4.4,6.7-3.8,17.9-3,25.8c0.8,7.9,3.3,15.6,5.7,23.2c0.7,2.1,1.3,4.2,1.7,6.4c0.4,3,0.4,6,0.2,9c-0.8,13.9-2.7,28-0.4,41.8
		c1.7,10,5.4,19.1,5.8,29.3c0.3-0.7,0.8-1.4,1.4-1.9l0.7,26.6c-0.1,0.5,0.1,1,0.5,1.3c0.5,0.3,1.1,0,1.7-0.1
		c1.7-0.2,2.8,1.6,3.9,2.9c1.7,1.9,4.3,2.8,6.8,3c2.6,0.1,5.1-0.1,7.6-0.7c1.2-0.2,2.4-0.5,3.3-1.3c0.9-0.9,1.3-2.2,1.1-3.5
		c-0.5-3.9-4.7-6.2-6.9-9.5c-2.5-4-1.9-9.3-4.4-13.3c-0.8-1.4-2-2.5-2.8-3.9c-0.4-0.9-0.7-1.8-0.9-2.7c0.8,0.2,1.5,0.6,2.1,1
		c-0.2-2.1-0.5-4.2-0.7-6.3l-0.1-0.9c-0.3-2.8-0.6-5.6-0.9-8.5c-0.8-9.3,1.9-18.4,0-27.6c-0.4-1.9,0.2-3.9,0.8-5.8
		c3.2-10.8,5.2-21.9,5.9-33.2c0.2-4,0.2-7.8,1.5-11.6c1.5,6.1,6.1,10.9,9,16.4c1.8,3.5,2.9,7.3,4.8,10.6c0.9,1.6,2.1,3.2,2.7,5
		c0.9,2.8,0.4,5.8,0,8.7c-2.1,15.1-1.8,30.5-1.2,45.7c-0.6,5.8-2,11.6-4,17.1c-0.8,2.2-1.7,4.7-0.4,6.7c0.5,0.7,1.2,1.3,1.9,1.8
		c1.8,1.3,3.7,2.5,5.7,3.5c0.6,0.4,1.3,0.6,2,0.5c0.4-0.2,0.8-0.4,1.2-0.6c1.6-0.9,3.6-0.8,5.3-0.2c1.7,0.6,3.3,1.6,4.9,2.3
		c3.5,1.5,7.4,1.8,11.1,0.8c1.6-0.4,3.2-1.3,3.7-2.8s-0.4-3.1-1.6-4.1c-1.2-1-2.7-1.5-4.1-2.3c-3.1-1.6-5.6-4.1-7.2-7.2
		c-1-2-1.7-4.2-2.3-6.3c-0.7-2.6-1.5-5.2-2.2-7.9c0.4,0.3,0.8,0.6,1.2,0.9c1-13,2.1-26,4.9-38.7c1.3-6.1,3.1-12.2,2.4-18.4
		c-0.4-3.3-1.4-6.4-2.3-9.5c-3-9.8-5.6-19.6-7.9-29.6c0.8-0.9,1.5-2,1.9-3.2c0.7-2.2,1.1-4.5,1.2-6.8c1.1-15.6,1-31.3-0.1-46.9
		c-0.3-4-0.8-8.1-2.3-11.7h0.9c-1.1,0-2.9-10.8-3.1-12c-0.7-4.2-1.2-8.4-2-12.5c-0.4-2-0.8-4-1.3-6c-0.3-1.3-1.7-9.5-2.8-10.5
		c-0.1-0.1-0.3-0.2-0.4-0.2c-0.6-1.8-1.8-3.4-3.4-4.4c-1.8-1-3.9-1-6-0.9c-0.6-0.9-1.2-1.7-1.8-2.5c-1.1-1.4-1.9-2.9-2.4-4.6
		c-0.2-0.7-0.3-1.4-0.3-2.1c0-0.5,0-1-0.1-1.4c0-0.2,0-0.5,0-0.7c0-0.5-0.1-1-0.2-1.4l0,0c-0.1-0.4-0.2-0.8-0.3-1.2
		c0-0.2-0.1-0.3-0.2-0.5c-0.3-1-0.6-1.9-0.9-2.9c-0.8-3.2-0.4-6.5-0.3-9.7c0.1-3.3-0.1-6.7-1.9-9.4c-1.3-2-3.5-3.5-4.2-5.8
		c-0.3-1.1-0.3-2.3-0.8-3.3c-0.7-1.1-1.7-2-2.9-2.5c-1.5-0.6-4.4-1.5-5.9-0.7c-0.3,0.1-0.6,0.4-0.8,0.6c-1.7,0.1-3.3,0.3-4.8-0.4
		c-1.1-0.6-1.9-1.6-3-2.2c-2.6-1.4-5.8,0-8.1,1.9c-3.6,3-6.3,7-7.6,11.5c-1,3.5-1.4,7.5-4.3,9.7c-1.2,0.9-2.8,1.4-3.6,2.6
		c-0.6,1-0.9,2.1-1,3.3c-0.3,2.6-0.6,5.3,0.1,7.9c0.5,1.9,1.6,3.6,2.2,5.5c1.7,5.4,0.2,11.4-4,15.2
		C-171.2,145.1-169.9,145.4-168.7,145.1z M-106.9,223c1.8-1,3-2.6,3.5-4.6c0.1,0.3,0.1,0.5,0.2,0.8c0.8,3.4,0.7,6.9-0.5,10.1
		C-104.6,227.1-105.7,225-106.9,223z M-105.7,208.8c-1.1-1.5-2-3.2-2.7-4.9c-1-2.8-0.8-5.8-0.5-8.7c0.1-2.2,0.4-4.5,0.9-6.7
		C-107.7,195.3-106.9,202.1-105.7,208.8L-105.7,208.8z"/>
	<path class="st17" d="M-130.5,91.3c1.2,0.4,2.2,1.3,2.9,2.4c0.5,1,0.5,2.2,0.8,3.3c0.7,2.3,2.8,3.8,4.1,5.8c1.8,2.7,2,6.1,1.9,9.3
		c-0.1,3.2-0.5,6.5,0.3,9.6c0.4,1.5,1,3,1.3,4.5c0.3,1.9,0.1,3.9,0.5,5.7c0.5,1.7,1.3,3.2,2.4,4.6l4.2,6.1c-1.9-0.4-3.7-1-5.5-1.7
		c0.6,1.7,1.6,3.3,3,4.5l-3-3.7c-0.6-0.8-1.4-1.6-2.2-2.1c-1.1-0.6-2.4-0.7-3.7-1c-2.4-0.5-4.8-1.7-6-3.9c-1.6-2.9-0.6-6.5-1.4-9.6
		c-0.6-2.3-2.2-4.2-3.3-6.3c-2.5-4.8-2.3-10.5-3.1-15.8c-0.3-2.3-0.8-4.5-0.8-6.8c0-1.7,0.2-4.9,1.9-5.8
		C-134.8,89.9-132,90.7-130.5,91.3z"/>
	<path class="st6" d="M-96.8,344.9l3.2,11.4c0.5,2.2,1.3,4.3,2.2,6.3c1.6,3.1,4,5.6,7.1,7.2c1.4,0.7,2.9,1.3,4.1,2.3
		c1.2,1,2.1,2.6,1.6,4.1c-0.5,1.5-2.1,2.3-3.6,2.8c-3.6,1-7.5,0.7-10.9-0.8c-1.6-0.7-3.2-1.7-4.9-2.3s-3.7-0.8-5.2,0.2
		c-0.4,0.3-0.8,0.5-1.2,0.6c-0.7,0.1-1.4-0.1-2-0.5c-2-1-3.9-2.2-5.6-3.5c-0.7-0.5-1.4-1.1-1.9-1.8c-1.2-1.9-0.4-4.5,0.4-6.6
		c2.1-5.7,3.4-11.6,4-17.7c0-0.5,0.2-1.1,0.6-1.4c0.3-0.1,0.6-0.2,0.9-0.2l13.7-0.6"/>
	<path class="st6" d="M-132.4,356.3c0.7,1.4,1.9,2.6,2.7,3.9c2.4,4,1.8,9.2,4.3,13.2c2.1,3.3,6.2,5.6,6.7,9.5
		c0.2,1.3-0.2,2.6-1.1,3.5c-0.9,0.8-2.1,1-3.3,1.2c-2.5,0.6-5,0.8-7.5,0.7c-2.5-0.2-5.1-1.1-6.7-3c-1.1-1.3-2.2-3.1-3.9-2.9
		c-0.6,0.1-1.2,0.4-1.7,0.1c-0.4-0.3-0.6-0.8-0.5-1.3l-0.8-29.2c2.4-0.3,6.6-1.2,9-0.4C-133,352.2-133.3,354.5-132.4,356.3z"/>
	<path class="st18" d="M-108.4,221.3c5.9,7.4,7.7,17.1,9.6,26.4c2.4,11.9,5.5,23.8,9,35.4c1,3.1,1.9,6.2,2.3,9.5
		c0.6,6.2-1,12.3-2.4,18.3c-2.7,12.6-3.8,25.6-4.8,38.5c-4.2-3.6-10.3-3.9-14.9-0.8c-0.7-15.6-1-31.3,1.1-46.7
		c0.4-2.9,0.9-5.9,0-8.7c-0.6-1.8-1.7-3.3-2.6-5c-1.9-3.4-3-7.1-4.8-10.6c-2.8-5.5-7.3-10.3-8.8-16.3c-1.3,3.8-1.2,7.6-1.5,11.5
		c-0.7,11.2-2.6,22.3-5.8,33c-0.6,1.9-1.2,3.9-0.8,5.8c1.8,9.1-0.8,18.2,0,27.4c0.2,2.8,0.5,5.6,0.9,8.4l0.1,0.9l0.7,6.2
		c-2.6-1.8-5.3-1.5-8.4-1.3c-1,0-2.1,0.2-3.1,0.5c-1.3,0.5-2.3,1.5-2.8,2.8c-0.4-10.1-4-19.1-5.7-29.1c-2.3-13.7-0.4-27.7,0.4-41.5
		c0.3-3,0.2-6-0.2-9c-0.4-2.2-0.9-4.3-1.6-6.4c-2.3-7.6-4.8-15.2-5.6-23c-0.8-7.9-1.3-19,3-25.7c1.3-2.1,4.6-1.1,6.6-2.5
		c1.6-1,3.4-1.7,5.3-2.2C-131.8,214.5-119.9,220.3-108.4,221.3z"/>
	<path class="st19" d="M-128.7,129.8c0.3,2.8,0.8,6.1,3.4,7.3c1.5,0.6,3.1,0.4,4.7,0.7c3,0.5,5.4,2.8,6.8,5.4
		c1.4,2.7,1.9,5.7,2.2,8.7c0.4,3.7,0.5,7.8-1.5,11c-1.7,2.6-4.5,4.1-7.5,4.9c-6,1.6-12.4,0.4-17.4-3.2c-2.4-1.9-4.5-4-6.4-6.3
		c-4.3-5-8.6-10.4-9.4-16.9c-0.1-0.7-0.1-1.6,0.5-2.1c0.4-0.2,0.9-0.3,1.4-0.3l4.1,0.1c1,0,2.2,0,2.9-0.8c0.7-0.8,0.6-1.8,0.6-2.7
		l-0.3-11.9c-0.1-0.4,0-0.8,0.3-1.2c0.3-0.2,0.6-0.4,0.9-0.4c2.3-0.4,4.6,0,6.8-0.6c2.1-0.6,5.4-3,6.9-0.5
		C-128.4,123.1-128.9,127.4-128.7,129.8z"/>
	<path class="st4" d="M-128.7,129.8c0.3,2.8,0.8,6.1,3.4,7.3c1.5,0.6,3.1,0.4,4.7,0.7c3,0.5,5.4,2.8,6.8,5.4
		c1.4,2.7,1.9,5.7,2.2,8.7c0.4,3.7,0.5,7.8-1.5,11c-1.7,2.6-4.5,4.1-7.5,4.9c-6,1.6-12.4,0.4-17.4-3.2c-2.4-1.9-4.5-4-6.4-6.3
		c-4.3-5-8.6-10.4-9.4-16.9c-0.1-0.7-0.1-1.6,0.5-2.1c0.4-0.2,0.9-0.3,1.4-0.3l4.1,0.1c1,0,2.2,0,2.9-0.8c0.7-0.8,0.6-1.8,0.6-2.7
		l-0.3-11.9c-0.1-0.4,0-0.8,0.3-1.2c0.3-0.2,0.6-0.4,0.9-0.4c2.3-0.4,4.6,0,6.8-0.6c2.1-0.6,5.4-3,6.9-0.5
		C-128.4,123.1-128.9,127.4-128.7,129.8z"/>
	<circle class="st19" cx="-139" cy="113.4" r="15.6"/>
	<path class="st2" d="M-122.2,156.9c2.5,0,5.4-0.6,6.6-2.9c0.8-1.5,0.7-3.4,0.5-5.1l-0.9-9.6c2.5-0.3,5.1-0.5,7.2,0.7
		c2.8,1.6,3.9,5.2,4.2,8.4c0.6,6.1-0.4,12.3,0,18.4c0.3,5.1,1.5,10.4,0,15.4c-0.6,2.1-1.7,4-2.4,6c-0.9,2.6-1.1,5.3-1.3,8
		c-0.2,2.9-0.5,5.9,0.5,8.7c0.8,2.3,2.4,4.3,3.5,6.4c1.9,3.6,2.3,8.4-0.5,11.3c-2.6,2.7-6.8,2.8-10.4,1.9c-3.6-0.8-7.1-2.4-10.7-2.6
		c-6.5-0.3-12.3,3.9-18.6,5.3c-0.8,0.2-1.7,0.3-2.6,0.1c-0.8-0.2-1.5-0.6-2.1-1.1l-3.5-2.5c-0.7-0.4-1.3-1-1.7-1.7
		c-0.3-0.8-0.4-1.6-0.2-2.4c1.2-10.8,7.3-21.2,5.5-32c-0.6-2.8-1.4-5.6-2.5-8.2c-4.4-11.3-9.7-23-8-35c0.4-2.7,1.2-5.4,3-7.3
		s4.9-2.9,7.3-1.7s3.2,4.1,4.3,6.5c2,4.7,5.2,8.9,9.3,12c1.7,1.3,3.8,3,6.1,3.1C-127.3,157-124.7,156.8-122.2,156.9z"/>
	<path class="st19" d="M-99.5,181.2c3.8,4.2,4.5,10.3,5,15.9c1.1,15.5,1.2,31.1,0.1,46.6c-0.1,2.3-0.4,4.6-1.1,6.8
		c-0.8,2.2-2.3,4.1-4.5,5c-1.4,0.6-3.3,0.4-3.9-0.9c-0.6-1.2,0.3-2.6,0.9-3.8c1.5-2.7,1.9-5.9,1.4-9c-0.8,0.6-1.1,1.6-1.3,2.5
		l-1.2,5.2c-1.7-0.2-2.3-2.3-2.6-4c-0.5-3-1-6.3,0.3-9.1c0.6-1.5,1.7-2.8,2.4-4.3c1.6-3.8,2.3-8.1,1.2-12.1
		c-3.6-13.4-5.1-27.3-4.6-41.2C-105.1,180.3-102.3,181.1-99.5,181.2z"/>
	<path class="st2" d="M-96,185.4c-4.7,0-9.3,0.7-13.8,1.8c-0.6-2.9-0.3-6,0-9l2-20.6c0.1-1.5-0.1-15.5,2.8-13
		c1.1,0.9,2.5,9.1,2.8,10.4c0.5,2,0.9,4,1.3,6c0.7,4.1,1.2,8.3,1.9,12.4C-98.8,174.7-97,185.4-96,185.4z"/>
	<path class="st17" d="M-133,93.6c0-0.5-0.1-1-0.3-1.4c-0.4-0.5-1-0.8-1.7-0.9c-2.3-0.4-4.7,0.6-6.8-0.5c-1.1-0.6-1.9-1.6-3-2.2
		c-2.6-1.4-5.8,0-8,1.9c-3.6,3-6.2,6.9-7.5,11.4c-1,3.5-1.4,7.5-4.3,9.7c-1.2,0.9-2.7,1.4-3.6,2.6c-0.6,1-0.9,2.1-0.9,3.2
		c-0.3,2.6-0.5,5.3,0.1,7.9c0.5,1.9,1.5,3.6,2.2,5.5c1.7,5.4,0.2,11.3-4,15.2c1,0.7,2.3,0.9,3.5,0.6c0,0.6-0.2,1.1-0.5,1.5
		c3.7-0.1,6.8-3.7,10.4-2.9c2.7,0.6,4.3,3.4,6.3,5.3c2.6,2.5,6.7,3.5,10,2s5.3-5.6,3.9-9c-1.6-3.8-6.5-5.3-8.2-9
		c-1.3-2.9-0.3-6.3-0.6-9.4c-0.2-2.7-1.4-5.3-2.1-7.9c-0.7-2.6-1-5.6,0.5-7.9c1.6-2.4,4.6-3.4,7.4-4.3C-134,103-132.8,99.8-133,93.6
		z"/>
	<path class="st19" d="M-136.9,149.7c0.4-2.2,0.9-4.5,0.1-6.6c-1.5-3.9-6.2-5.1-9.6-7.6c-1.9-1.5-3.4-3.4-4.3-5.7
		c-0.6-1.6-0.7-3.8,0.8-4.6c0.6-0.3,1.2-0.4,1.8-0.3c5.1,0.1,9.9,2.9,13.8,6.2c2.3,1.9,4.5,4.1,5.6,6.9c0.7,2,1.2,4.1,1.3,6.2l0.8,7
		c0.5,4,0.9,8.1,1,12.1c0,2.3-0.1,4.6-0.4,6.9c-0.2,1.6-0.5,3.3-1.5,4.7c-1.8,2.5-5.2,3.1-8.3,3.1c-1.2,0.1-2.3,0-3.5-0.2
		c-5.1-1.1-9-8.2-5.1-12.6c1.6-1.9,4.1-1.9,5-4.5C-137.9,157.4-137.6,153.3-136.9,149.7z"/>
	<path class="st2" d="M-141,151l4.1,6.6c0.2,0.3,0.4,0.7,0.5,1.1c0.1,0.9-0.5,1.6-1,2.3c-3.5,4.7-2.6,11.2-1.5,17
		c-11.3-3.6-19.5-13.3-21.2-25c-0.5-3.4-1.3-9.1,1.7-11.3C-151.2,136.3-144.4,145.3-141,151z"/>
	<path class="st17" d="M-120.6,137.8c-1.6-0.3-3.3,0-4.7-0.7c-2.6-1.2-3.1-4.5-3.4-7.3c0-0.3,0-0.5,0-0.8c0.9-0.9,1.9-1.8,3-2.6
		c1-0.6,2-1,3-1.3l2.8-1c0.3,0.8,0.5,1.5,0.6,2.3c0.3,1.9,0.1,3.9,0.5,5.7c0.5,1.7,1.3,3.2,2.4,4.6l4.2,6.1
		c-0.8-0.2-1.5-0.4-2.3-0.6C-115.8,140-118,138.2-120.6,137.8z"/>
	
		<linearGradient id="SVGID_2_" gradientUnits="userSpaceOnUse" x1="453.6108" y1="-35.4027" x2="453.6108" y2="280.006" gradientTransform="matrix(1 0 0 -1 -86 349.5)">
		<stop  offset="0" style="stop-color:#808080;stop-opacity:0.25"/>
		<stop  offset="0.54" style="stop-color:#808080;stop-opacity:0.12"/>
		<stop  offset="1" style="stop-color:#808080;stop-opacity:0.1"/>
	</linearGradient>
	<path class="st20" d="M446.3,164.9c-0.7-3.6-2.1-7.1-3-10.7c-0.3-1.9-0.8-3.7-1.4-5.5c-0.3-0.8-0.7-1.5-1.1-2.3l0.4-0.4
		c-1.3-2.2-1.4-5-2-7.6c-0.5-2.2-1.6-4.2-2.3-6.4c-0.9-3-1-6.4-2.9-8.8c-0.7-1-1.7-1.7-2.5-2.6c-0.9-1-1.7-2.2-2.6-3.3
		c-2.8-2.9-6.9-3.9-10.9-4.3c-3.9-0.4-8-0.4-11.6-2.1c-1.5-0.7-3.1-1.7-4.7-1.6c-0.9-0.9-1.7-1.8-2.5-2.8c-1.2-1.5-2.3-3-3.3-4.7
		c0.8-1.3,1.4-2.7,1.8-4.1l0.3-0.2c1-0.8,1.9-1.8,2.9-2.6c0.9-0.6,2-1.3,2.1-2.5c0.1-1.1-0.9-2-1.6-3c-2.3-3.4,0.2-8.7-2.1-12
		c-1.2-1.7-3.3-2.3-5.1-3.1c-2.6-1.1-4.9-2.8-7.4-3.9s-5.5-1.7-8.1-0.6c-4.8,2-6.5,8.8-11.4,10.6c-0.5,0.1-1,0.4-1.4,0.8
		c-0.6,1-1.4,6.7-1.2,7.9c0.2,1.6,0.6,2.4,1.7,2.9c0,0.3,0,0.7,0,1c0,8.2,5.7,15,13.1,16.4c0.7,0.8,1.3,1.6,1.8,2.5
		c0.4,1,0.6,2,0.6,3.1c-0.3-0.1-0.6-0.2-0.9-0.2c-1,0.1-1.8,0.8-2,1.8c-0.3,0.9-0.4,1.9-0.3,2.9c0.1,0.6-0.1,1.2-0.6,1.7
		c-0.2,0.1-0.5,0.2-0.8,0.2c-1,0.2-2,0.3-3,0.3c-1.7,0-3.5-0.4-4.9,0.4c-1.5,0.8-2.1,2.6-2.8,4.2c-1,2.3-2.4,4.4-4,6.3
		c-1.8,2.1-4,4.1-4.5,6.8c0,0.1,0,0.1,0,0.2c-1.4,0.6-2.8,2.2-3.9,3c-1.9,1.5-3.8,3.1-5.6,4.8c-1.8,1.7-4.2,3.9-5.4,6.2
		c-0.6,1-1.3,1.9-2.2,2.6c-1.8,1.2-4.2,0.6-6.3-0.1c-5.7-1.8-11.5-3.7-16.8-6.5c-0.3-0.2-0.6-0.3-0.9-0.2c-0.2,0.1-0.3,0.2-0.4,0.3
		c0-0.1-0.1-0.1-0.1-0.2c-1.4-1.6-3.7-1.7-4.5-4c-0.2-0.8-0.4-1.5-0.5-2.3c-0.5-2.3-1.3-4.5-2.4-6.5c-0.2-0.4-0.4-0.8-0.8-1.1
		c-0.7-0.3-1.5-0.1-1.9,0.6c-0.4,0.7-0.5,1.4-0.4,2.2c0.1,0.8,0.2,1.8-0.4,2.4c-0.2,0.2-0.5,0.4-0.8,0.5c-1.9,0.6-3.9,0.1-5.6-0.8
		c-1.7-0.9-3.3-2.2-5-3.1c-0.9-0.5-1.8-0.9-2.8-1.3c-1-0.4-2.4-0.7-2.9,0.3c-0.4,0.8,0,1.7,0.5,2.4c0.9,1.2,1.9,2.4,3,3.4
		c3.3,3,7.5,4.7,11.5,6.7c3.4,1.8,6.6,4,9.6,6.4c-0.1,0.4-0.2,0.8-0.2,1.1c0,1.5,0.7,3,1.8,4c1.1,1,2.4,1.8,3.7,2.4
		c6.8,3.5,13.7,7,20.6,10.3c0.4,0.3,0.9,0.4,1.4,0.5c1.4,0,2.3-1.5,3.4-2.4s2.6-1.1,3.9-1.6c2.4-0.8,4.5-2.4,6.6-4l6.6-5
		c3.3-2.5,6.7-5.1,9.5-8.2c0.4,0.7,0.8,1.4,1.5,1.9c-0.5,1.2,0.6,2.4,0.9,3.7c0.1,0.9,0.1,1.7,0.1,2.6c0.1,1.3,0.3,2.5,0.6,3.7
		c0.3,2,0.5,4,0.4,6c0,2.2,0.1,4.5,0.1,6.7c0,2.9,0.1,5.8-0.5,8.7c-0.8,3.9-2.9,7.5-2.7,11.5c0.1,0.7,0,1.5-0.2,2.2
		c-1.7,3.2-3,6.8-4.8,9.9c-0.5,0.8-1,1.6-1.3,2.5c-0.2,0.9-0.1,1.9,0.3,2.7c-0.7,1.3-1.1,2.7-1.2,4.2c-0.1,3.6,1.3,7.1,2,10.6
		c0.6,3.3,0.6,6.6,0.7,10c0.5,15.7,3.6,31.1,4.2,46.8c0.3,7.2,0.1,14.4-0.6,21.6c-0.5,4.6-1.2,9.3-1.4,13.9
		c-0.7,13.2,2,26.3,4.8,39.3c0.8-1,2-1.6,3.3-1.8c-0.3,1.3-0.8,3-1.2,4.2c-0.7,0.1-1.3,0.3-1.9,0.7c-1.6,1-2.1,3.1-3.1,4.8
		c-2,3.7-6,5.6-9.3,8.1c-1.6,1.2-3.2,3.1-2.7,5c5.7,1.7,11.9,3.1,17.3,0.8c2.2-0.9,4.3-2.4,6.7-2.5c1.8-0.1,3.7,0.7,5.4,0.2
		c0.4-0.1,0.8-0.4,1.1-0.7c0.2-0.4,0.3-0.8,0.3-1.3c0.1-3,0.1-6,0-9.1c-0.1-2.6,0.1-4.5-2-4.9c-0.5-1.3-0.9-2.6-1.1-4
		c0-0.3-0.1-0.5-0.1-0.8c0.6,0,1.1,0,1.7-0.1c0.3-0.1,0.7-0.1,1-0.2c-0.1-0.4-0.2-0.9-0.3-1.3c-0.2-0.9-0.3-1.8-0.4-2.7
		c-0.1-0.9-0.2-1.8-0.3-2.7c0-0.5-0.1-0.9-0.1-1.4c0-0.9-0.1-1.8,0-2.7c0-0.9,0-1.8,0.1-2.7c0.1-0.9,0.1-1.8,0.2-2.7
		c0.2-2.3,0.4-4.6,0.6-6.8c0.7-6.6,1.3-13.3,2-19.9c0.2-2,0.4-4,0.4-6c0-1.2,0-2.4-0.2-3.6c-0.3-2.9-1.2-5.8-1.3-8.6
		c0-0.5,0-0.9,0.1-1.4c0-0.5,0.1-0.9,0.2-1.4c0.1-0.3,0.1-0.5,0.2-0.8c0.2-0.5,0.3-1,0.5-1.5c0.1-0.3,0.2-0.5,0.2-0.8
		c0.3-1.1,0.4-2.2,0.5-3.3c0-0.4,0-0.7,0.1-1.1l0.8-15.7c0.1-2.5,0.3-5.2,1.3-7.5c0.4-1,1-1.9,1.8-2.6c-0.2-0.5,0-1.4,0.6-1.6
		c0.6,8,0.6,16-0.2,24c-0.3,2.5-0.7,5-0.8,7.5c-0.2,5.6,1,11,1.4,16.6c0.4,5.5,0,11.2,0,16.9c0,9.7,1,19.3,2.1,28.9l0.6,0.4
		c0,0.8,0.1,1.8,0.1,2.6c0,0.3,0,0.6,0.1,0.8h-0.3c-1.3,0.1-2.4,0.8-3,1.9c-0.6,1.1-1.1,2.3-1.4,3.5c-0.3,0.9-0.4,1.9-0.4,2.9
		c0.2,1.8,1.8,3.2,2.2,5c0.8,3.3-2.4,6.8-1,9.8c0.9,1.9,3.3,2.5,5.3,2.8c3.1,0.5,6.6,0.9,9.1-1.1c1.3-1.2,2.1-2.9,2.1-4.7
		c0-2.4-1.4-4.4-2-6.7c-0.9-3.2,0.4-7.4-0.9-10.4c-0.1-0.3-0.3-0.6-0.5-0.8h0.5c-0.1-1.1-0.2-2.2-0.3-3.2l1.1-0.6
		c1.1-0.6,2.4-1,3.6-0.5c-0.4-5.5-0.6-11.6,0.7-17c1-4.2,2.8-8.3,3.6-12.5c0.6-3.5,0.7-7.1,0.7-10.7c0-6.7,0-13.4-1.1-19.9
		c-0.4-2.6-1.1-5.3-0.6-7.9c0.3-1.7,1.1-3.3,1.6-5c1.1-4,0.3-8.2,0.9-12.3c1.5-9.7,2.3-19.8,3.5-29.6c0.6-5.5,0.8-11.1,0.6-16.7
		v-0.1l2.3-4.5c1.7-3.2,3.3-6.5,4.3-9.9c0.3,0.5,0.6,1,0.8,1.6L440,195c0.7-1,1.2-2.1,1.5-3.2c0.2-0.8,0.3-1.7,0.5-2.5
		c0.5-2.2,1.5-4.1,2.4-6.1C447,177.4,447.6,171,446.3,164.9z M431.2,173.3c-0.5,2.8-1.1,5.5-1.9,8.2c-1.3,4.6-2.9,9.1-4.4,13.7
		l-1.3,3.9c-0.5,1.6-1.1,3-2,4.4c-0.2,0.3-0.4,0.7-0.5,1c-1.4-5.1,0.1-10.9-0.2-16.4c-0.2-4.1-1.5-8.4-0.6-12.4
		c0.6-2.7,2.3-5,3.4-7.6c1.1-2.4,1.7-4.9,2.9-7.2c0,0,0,0.1,0,0.1c1.1,2.8,2.3,5.5,3.8,8.1c0.4,0.6,0.7,1.2,0.9,1.9
		C431.4,171.8,431.3,172.6,431.2,173.3L431.2,173.3z"/>
	<path class="st21" d="M311.9,145.5c-0.2-0.8-0.4-1.5-0.5-2.3c-0.4-2.3-1.5-4.4-2.5-6.5c-0.2-0.4-0.5-0.8-0.8-1.1
		c-0.7-0.3-1.6-0.1-2,0.6c-0.4,0.7-0.5,1.4-0.4,2.2c0.1,0.8,0.2,1.8-0.4,2.4c-0.2,0.2-0.5,0.4-0.9,0.5c-1.9,0.6-4.1,0.1-5.9-0.8
		c-1.8-0.9-3.4-2.2-5.2-3.1c-0.9-0.5-1.9-0.9-2.9-1.3c-1-0.4-2.5-0.7-3,0.3c-0.5,0.8,0,1.7,0.5,2.5c0.9,1.3,1.9,2.4,3.1,3.4
		c3.5,3,7.9,4.7,12,6.8c4.6,2.3,8.9,5.2,12.7,8.6c0.4-0.4,0.6-1,0.6-1.6c0.3-1.6,1.7-5,0.3-6.4C315,148,312.7,147.9,311.9,145.5z"/>
	<path class="st2" d="M376.3,366.1c3.4,2.7,7.8,3.9,12.1,3.4c0.9-0.1,1.9-0.4,2.2-1.3c0.1-0.5,0-1.1-0.2-1.5c-0.7-1.6-1.2-3.3-1.6-5
		c-0.2-1.6-0.2-3.4-1.4-4.4c-1.8-1.4-6.6-1.3-7.8,0.8C379.3,358.5,377.5,367.1,376.3,366.1z"/>
	<path class="st2" d="M402.2,358.5c-0.2,0.7,0.2,1.3,0.9,1.5c0.1,0,0.1,0,0.2,0c2.9,0.9,6,1.4,9.1,1.5l-0.6-6.2c0-0.5-0.3-1-0.9-1
		c-0.1,0-0.1,0-0.2,0c-1.8-0.3-5.5-1.5-7.2-0.9C401.6,354.1,402.2,356.7,402.2,358.5z"/>
	<path class="st21" d="M384.3,112c0.5,1.3,0.7,2.7,0.7,4.1c0.2,5-0.7,10.4-4.2,13.9c3.9-1.2,8.3-0.5,11.9-2.2
		c1.7-0.8,3.1-2.1,4.7-3.1c2.8-1.8,6.1-2.6,9.1-4.2c3-1.6,5.7-4.2,5.9-7.6c-1.3-1.3-3.3-1.5-5-2.4c-1.8-0.9-3.2-2.5-4.4-4.1
		c-1.5-1.7-2.8-3.6-3.9-5.6c-1.1-2-1.6-4.3-1.3-6.6c-3.3,0.6-5.7,3.5-8.8,4.7c-1.2,0.5-2.5,0.7-3.7,1.2c-1.7,0.8-5.1,3.4-5.1,5.4
		C380.2,107.9,383.4,110,384.3,112z"/>
	<path class="st4" d="M384.3,112c0.5,1.3,0.7,2.7,0.7,4.1c0.2,5-0.7,10.4-4.2,13.9c3.9-1.2,8.3-0.5,11.9-2.2
		c1.7-0.8,3.1-2.1,4.7-3.1c2.8-1.8,6.1-2.6,9.1-4.2c3-1.6,5.7-4.2,5.9-7.6c-1.3-1.3-3.3-1.5-5-2.4c-1.8-0.9-3.2-2.5-4.4-4.1
		c-1.5-1.7-2.8-3.6-3.9-5.6c-1.1-2-1.6-4.3-1.3-6.6c-3.3,0.6-5.7,3.5-8.8,4.7c-1.2,0.5-2.5,0.7-3.7,1.2c-1.7,0.8-5.1,3.4-5.1,5.4
		C380.2,107.9,383.4,110,384.3,112z"/>
	<path class="st6" d="M426.5,241.8c-1.2,9.8-2.1,20-3.7,29.7c-0.6,4.1,0.2,8.4-1,12.3c-0.5,1.7-1.3,3.3-1.6,5
		c-0.5,2.6,0.2,5.3,0.6,8c1.2,6.6,1.2,13.3,1.2,20c0,3.6,0,7.2-0.7,10.8c-0.9,4.3-2.7,8.4-3.7,12.6c-1.3,5.4-1.2,11.5-0.8,17
		c-1.2-0.4-2.6,0-3.7,0.5c-1.1,0.5-2.3,1.3-3.6,1.4c-1.7,0.2-3.4-0.8-4.8-1.6c-1.1-0.7-2.1-1.3-3.3-2c-1.1-9.6-2.2-19.3-2.2-29
		c0-5.6,0.4-11.3,0-16.9s-1.7-11.1-1.5-16.6c0.1-2.5,0.6-5,0.8-7.5c1-8.1,0.8-15.9,0.3-24.1c-0.6,0.1-0.8,1-0.6,1.6
		c-0.8,0.7-1.5,1.6-1.9,2.6c-1,2.2-1.2,5-1.4,7.5l-0.8,15.7c0,1.5-0.2,3-0.6,4.4c-0.3,1-0.7,2-1,3.1c-0.9,3.8,0.6,7.6,1.1,11.5
		c0.4,3.2,0.1,6.4-0.3,9.6l-2.1,20c-0.8,7.3-1.5,14.7,0,21.8c0.1,0.4,0.2,0.9,0.3,1.3c-0.4,0.1-0.7,0.2-1.1,0.2
		c-1.3,0.2-2.6,0.2-3.9,0c-1.2-0.1-2.4-0.3-3.6-0.5c-2.8-0.3-5.7-0.4-7.6,1.7c-2.9-13-5.7-26.2-5-39.5c0.3-4.7,1-9.3,1.5-14
		c0.8-7.2,1-14.5,0.7-21.7c-0.6-15.7-3.9-31.3-4.4-47c-0.1-3.4-0.1-6.7-0.8-10c-0.7-3.6-2.3-7.1-2.1-10.7c0.1-3.6,2.8-7.6,6.4-7.4
		c10.1,0.6,19.3-5,29.4-6c4.6-0.4,9.2-1.1,13.8-0.3s9,3.4,10.8,7.6c1,2.3,1,4.9,1.1,7.4C427.2,227.6,427.4,234.7,426.5,241.8z"/>
	<path class="st12" d="M375.8,365.1c-1.7,1-2.2,3.1-3.2,4.8c-2.1,3.7-6.3,5.6-9.7,8.2c-1.6,1.2-3.3,3.1-2.8,5.1
		c5.9,1.7,12.4,3.1,18.1,0.8c2.3-0.9,4.5-2.5,7-2.5c1.9-0.1,3.9,0.7,5.6,0.2c0.4-0.1,0.8-0.4,1.1-0.7c0.2-0.4,0.3-0.8,0.3-1.3
		c0.2-3,0.1-6.1,0-9.1c-0.2-3,0.2-5.1-3.2-4.9C385.1,365.7,379.1,363,375.8,365.1z"/>
	<path class="st12" d="M404.2,359.8c-0.7-0.3-1.4-0.4-2.2-0.5c-1.3,0.1-2.5,0.8-3.2,1.9c-0.7,1.1-1.1,2.3-1.4,3.5
		c-0.3,0.9-0.5,1.9-0.4,2.9c0.3,1.8,1.9,3.2,2.3,5c0.8,3.3-2.6,6.8-1,9.8c1,1.9,3.4,2.5,5.5,2.8c3.3,0.5,6.9,0.9,9.5-1.2
		c1.4-1.1,2.2-2.9,2.2-4.7c0-2.4-1.5-4.5-2.1-6.7c-0.9-3.2,0.4-7.5-1-10.4C411.2,359.8,406.8,360.6,404.2,359.8z"/>
	<circle class="st21" cx="385.3" cy="93.1" r="16.7"/>
	<path class="st2" d="M394.2,120.4c-1.8-0.8-3.8-0.9-5.7-0.4l-1.5-2.7c-0.6-1.2-1.6-2.5-2.9-2.4c-1,0.1-1.8,0.8-2.1,1.8
		c-0.3,0.9-0.4,1.9-0.3,2.9c0.1,0.6-0.1,1.2-0.6,1.7c-0.2,0.1-0.5,0.2-0.8,0.2c-1,0.2-2.1,0.3-3.1,0.3c-1.7,0-3.6-0.4-5.1,0.4
		c-1.5,0.8-2.2,2.6-3,4.2c-1.1,2.3-2.5,4.4-4.2,6.3c-1.9,2.1-4.2,4.1-4.7,6.8c-0.2,1.2,0.8,2,1.7,2.9c3.4,3.3,8.1,5.4,10.6,9.4
		c0.6,0.9,1.1,2,2,2.7c-0.6,1.2,0.6,2.5,0.9,3.8c0.1,0.9,0.1,1.7,0.1,2.6c0.1,1.3,0.3,2.5,0.6,3.7c0.3,2,0.5,4,0.5,6l0.1,6.8
		c0,2.9,0.1,5.9-0.5,8.7c-0.9,3.9-3,7.5-2.8,11.5c0.1,0.7,0,1.5-0.2,2.2c-1.8,3.2-3.1,6.8-5,9.9c-0.5,0.8-1,1.6-1.3,2.5
		c-0.5,1.8,0.5,3.8,2,5c1.5,1.1,3.4,1.6,5.3,2c17.3,3.3,35.3-0.7,51.6-7.2c0.4-0.1,0.8-0.4,1.2-0.6c1.2-1.2,0.3-3.1-0.4-4.6
		c-2.6-5.6-0.5-12.2-0.9-18.4c-0.2-4.2-1.6-8.4-0.6-12.4c0.6-2.7,2.4-5,3.5-7.6c1.3-2.7,2-5.8,3.7-8.3c1.3-1.7,2.7-3.3,4.4-4.6
		l10.4-9.3c-1.4-2.2-1.4-5.1-2.1-7.6c-0.6-2.2-1.7-4.2-2.4-6.4c-0.9-3-1.1-6.4-3-8.9c-0.8-1-1.8-1.7-2.6-2.7c-1-1-1.7-2.3-2.7-3.3
		c-2.9-3-7.2-3.9-11.3-4.3s-8.4-0.4-12.2-2.1c-1.9-0.8-3.9-2-5.8-1.4c-1.5,0.5-2.5,2-3.1,3.5c-0.6,1.5-1.1,3.1-2.1,4.3
		C398.3,118.8,396,119.7,394.2,120.4z"/>
	<path class="st2" d="M344.5,153.7c-0.6,1-1.4,1.9-2.3,2.6c-1.9,1.2-4.4,0.6-6.5-0.1c-6-1.9-12-3.7-17.5-6.6
		c-0.3-0.2-0.6-0.3-0.9-0.2c-0.3,0.1-0.5,0.2-0.6,0.5c-0.9,1-1.7,2-2.4,3.1c-0.8,1-1.3,2.2-1.4,3.5c0,1.6,0.7,3,1.9,4
		c1.2,1,2.5,1.8,3.9,2.4c7.1,3.5,14.3,7,21.5,10.4c0.5,0.3,1,0.4,1.5,0.5c1.5,0,2.4-1.5,3.6-2.4s2.7-1.1,4.1-1.6
		c2.5-0.8,4.7-2.4,6.9-4l6.9-5c6-4.4,12.3-9.1,15-16.1l-8.4-2.7c-2.5-0.8-5.1-2.1-7.7-2.6c-1.9-0.4-4.2,2.2-5.7,3.3
		c-2,1.5-4,3.1-5.9,4.8C348.2,149.2,345.7,151.4,344.5,153.7z"/>
	<path class="st21" d="M423.6,208.6c-2.4,0.9-5-0.5-7.5-0.1c-1.2,0.3-2.3,0.7-3.3,1.4l-7.3,4.1c-0.4,0.2-0.9,0.8-0.5,1.2
		c0.1,0.1,0.2,0.1,0.4,0.1c2.4,0.3,4.7-1.2,7.1-1.6c1.1-0.1,2.1-0.2,3.2-0.1c0.2,0,0.4,0,0.5,0.1c0.4,0.2,0.6,0.6,0.5,1
		c0,0.4-0.1,0.8-0.1,1.2c0.1,0.9,0.4,1.8,1.1,2.6c2.3,3.3,4.9,6.5,7.7,9.4c0.7-0.9,1.3-1.9,1.8-2.9l2.4-4.5c2.5-4.6,5-9.4,5.4-14.7
		c-1.8-0.6-5.1-2.5-7-1.5S425.7,207.9,423.6,208.6z"/>
	<path class="st17" d="M383.2,90.4c4.7,0.5,9,2.7,13.2,4.9c-0.7,1.1,0.2,2.8,1.5,3.1s2.7-0.2,3.8-1c1.1-0.8,2-1.8,3.1-2.6
		c0.9-0.6,2.1-1.3,2.2-2.5c0.1-1.1-1-2-1.7-3c-2.4-3.4,0.3-8.7-2.2-12.1c-1.2-1.7-3.4-2.3-5.3-3.1c-2.7-1.1-5.1-2.8-7.7-3.9
		c-2.7-1.1-5.7-1.7-8.4-0.6c-5,2-6.8,8.9-11.9,10.7c-0.5,0.1-1,0.4-1.4,0.8c-0.6,1-1.4,6.8-1.3,7.9c0.2,2,0.8,2.7,2.7,3.3
		C373.9,93.7,378.8,89.9,383.2,90.4z"/>
	<path class="st2" d="M444.1,143.7c1.5,1.4,2.7,3.1,3.4,5c0.6,1.8,1.1,3.7,1.5,5.6c0.9,3.6,2.3,7.1,3.1,10.7
		c1.3,6.2,0.6,12.6-1.9,18.4c-0.9,2-2.1,4-2.5,6.1c-0.2,0.8-0.3,1.7-0.5,2.5c-0.4,1.1-0.9,2.2-1.6,3.2l-10.5,17
		c-0.8-2-2.5-3.6-4.5-4.3c-2-0.7-4.2-0.8-6.3-0.4c0.8-1.2,1.1-2.6,1.9-3.9c0.4-0.7,0.8-1.3,1.2-2c0.4-0.8,0.7-1.5,0.9-2.3l1.4-3.9
		c1.6-4.6,3.2-9.1,4.6-13.7c0.9-2.7,1.5-5.4,2-8.2c0.2-0.7,0.2-1.4,0.1-2.2c-0.2-0.7-0.5-1.4-1-2c-1.5-2.6-2.9-5.3-4-8.1
		c-0.8-2-1.7-4.2-0.9-6.2c0.5-1.1,1.2-2,2.1-2.7C436,148.9,439.9,146,444.1,143.7z"/>
	<path class="st4" d="M390.6,360.7l0.8-1.6c-1.5-7.1-0.7-14.6,0-21.8l2.1-20c0.3-3.2,0.6-6.4,0.3-9.6c-0.5-3.9-2-7.7-1.1-11.5
		c0.3-1,0.7-2,1-3.1c0.3-1.5,0.5-2.9,0.6-4.4L395,273c0.1-2.5,0.4-5.2,1.4-7.5v-0.4l-2.6-22.8l-7,118.4H390.6z"/>
	<path class="st10" d="M18.5,242.4c-0.7,0.3-1.5,0.5-2.3,0.6c0.9-0.5,1.5-1.3,1.8-2.3c-0.8,0.5-1.7,0.8-2.6,1
		c-1.6-1.6-4.2-1.7-5.8-0.2c-1.1,1-1.5,2.5-1.2,3.9c-3.3-0.2-6.4-1.7-8.4-4.3c-0.4,0.6-0.6,1.3-0.6,2.1c0,1.4,0.7,2.7,1.8,3.4
		c-0.7,0-1.3-0.2-1.9-0.5v0.1c0,2,1.4,3.6,3.3,4c-0.4,0.1-0.7,0.1-1.1,0.1c-0.3,0-0.5,0-0.8-0.1c0.5,1.7,2.1,2.8,3.8,2.8
		c-1.5,1.1-3.2,1.7-5.1,1.7c-0.3,0-0.7,0-1-0.1c1.9,1.2,4,1.9,6.3,1.9c7.5,0,11.7-6.3,11.7-11.7c0-0.2,0-0.4,0-0.5
		C17.3,244,18,243.2,18.5,242.4z"/>
	<path class="st10" d="M89.7,240H75.3c-0.5,0-0.9,0.4-0.9,0.9v14.5c0,0.5,0.4,0.9,0.9,0.9l0,0h7.2v-6.4h-1.9v-2.4h1.9v-1.7
		c0-2.1,1.5-3.2,3.3-3.2c0.9,0,1.9,0.1,2.1,0.1v2.2h-1.5c-1,0-1.2,0.5-1.2,1.2v1.5h2.4l-0.3,2.4h-2.1v6.4h4.5c0.5,0,0.9-0.4,0.9-0.9
		v-14.4C90.6,240.4,90.2,240,89.7,240z"/>
	<g class="st17">
		<path class="st22" d="M162.3,241.8c1.9,0,3.4,1.5,3.4,3.4v6.8c0,1.9-1.5,3.4-3.4,3.4h-6.8c-1.9,0-3.4-1.5-3.4-3.4v-6.8
			c0-1.9,1.5-3.4,3.4-3.4L162.3,241.8 M162.3,240.5h-6.8c-2.6,0-4.7,2.1-4.7,4.7v6.8c0,2.6,2.1,4.7,4.7,4.7h6.8
			c2.6,0,4.7-2.1,4.7-4.7v-6.8C167,242.6,164.9,240.5,162.3,240.5L162.3,240.5z"/>
		<path class="st22" d="M163.3,245.2c-0.6,0-1-0.5-1-1c0-0.6,0.5-1,1-1c0.6,0,1,0.5,1,1c0,0,0,0,0,0
			C164.3,244.8,163.9,245.2,163.3,245.2C163.3,245.2,163.3,245.2,163.3,245.2z M158.9,245.9c1.5,0,2.7,1.2,2.7,2.7
			c0,1.5-1.2,2.7-2.7,2.7c-1.5,0-2.7-1.2-2.7-2.7l0,0C156.2,247.1,157.4,245.9,158.9,245.9 M158.9,244.6c-2.2,0-4.1,1.8-4.1,4.1
			s1.8,4.1,4.1,4.1c2.2,0,4.1-1.8,4.1-4.1c0,0,0,0,0,0C163,246.4,161.2,244.6,158.9,244.6C158.9,244.6,158.9,244.6,158.9,244.6
			L158.9,244.6z"/>
	</g>
	<path class="st10" d="M245.7,256.2h-17.2c-1.2,0-2.1-0.8-2.1-1.9l0,0v-6.9c0-0.2,0.1-0.4,0.3-0.5l9.1-7.6c0.8-0.6,1.9-0.6,2.7,0
		l8.7,7.2c0.4,0.4,0.7,0.9,0.7,1.4v6.4C247.8,255.4,246.9,256.2,245.7,256.2L245.7,256.2z"/>
	<path class="st4" d="M226.3,247.5h21.3l0,0v7.6c0,0.6-0.6,1.1-1.3,1.1c0,0,0,0,0,0h-18.8c-0.7,0-1.3-0.5-1.3-1.1l0,0V247.5
		L226.3,247.5L226.3,247.5z"/>
	<path class="st23" d="M225.2,247"/>
	<path class="st2" d="M230.3,241.5h13.5c0.6,0,1.2,0.5,1.2,1v11.9c0,0.6-0.5,1-1.2,1h-13.5c-0.6,0-1.2-0.5-1.2-1v-11.9
		C229.1,242,229.7,241.5,230.3,241.5z"/>
	<polygon class="st4" points="245,247.8 245,255.5 229.1,255.5 229.1,247.8 237.1,251.2 	"/>
	<path class="st10" d="M237.1,251.6l-10.2-4.3c-0.2-0.1-0.5,0-0.6,0.2c0,0,0,0.1,0,0.2v7.4c0,0.6,0.6,1.1,1.3,1.1l0,0h18.9
		c0.7,0,1.3-0.5,1.3-1.1c0,0,0,0,0,0v-7.3c0-0.2-0.2-0.4-0.5-0.4c-0.1,0-0.2,0-0.2,0L237.1,251.6z"/>
	<rect x="230.5" y="242.8" class="st7" width="4.4" height="0.6"/>
	<rect x="230.1" y="244.8" class="st7" width="13.2" height="0.3"/>
	<rect x="230.1" y="245.9" class="st7" width="13.2" height="0.3"/>
	<rect x="230.1" y="246.9" class="st7" width="13.2" height="0.3"/>
</g>
<g id="Layer_3">
	<ellipse class="st24" cx="124" cy="338.7" rx="120.5" ry="20.8"/>
	<path class="st25" d="M20.7,67.4h209.9c4.3,0,7.8,3.5,7.8,7.8v255.9c0,4.3-3.5,7.8-7.8,7.8H20.7c-4.3,0-7.8-3.5-7.8-7.8V75.2
		C12.9,70.9,16.4,67.4,20.7,67.4z"/>
	<rect x="23" y="94.8" class="st26" width="203.9" height="216.7"/>
	<circle class="st22" cx="125.7" cy="325.8" r="7.9"/>
	<path class="st22" d="M125.7,87.1c-2.1,0-3.8-1.7-3.8-3.8c0-2.1,1.7-3.8,3.8-3.8c2.1,0,3.8,1.7,3.8,3.8c0,0,0,0,0,0
		C129.4,85.4,127.7,87.1,125.7,87.1z"/>
	<path class="st22" d="M125.7,79.7c2,0,3.6,1.6,3.6,3.6c0,2-1.6,3.6-3.6,3.6c-2,0-3.6-1.6-3.6-3.6c0,0,0,0,0,0
		C122.1,81.3,123.7,79.7,125.7,79.7 M125.7,79.3c-2.2,0-4,1.8-4,4c0,2.2,1.8,4,4,4c2.2,0,4-1.8,4-4
		C129.6,81.1,127.9,79.3,125.7,79.3C125.7,79.3,125.7,79.3,125.7,79.3L125.7,79.3z"/>
	<rect x="34.5" y="155.8" class="st25" width="12.2" height="2"/>
	<rect x="34.5" y="169.9" class="st25" width="12.2" height="2"/>
	<rect x="34.5" y="184" class="st25" width="12.2" height="2"/>
	<rect x="34.5" y="198.2" class="st25" width="12.2" height="2"/>
	<rect x="34.5" y="212.3" class="st25" width="12.2" height="2"/>
	<rect x="99.5" y="199.8" class="st27" width="9" height="43.1"/>
	<rect x="34.5" y="226.4" class="st25" width="12.2" height="2"/>
	<rect x="34.5" y="240.6" class="st25" width="12.2" height="2"/>
	<line class="st28" x1="50.6" y1="241.4" x2="50.6" y2="156.9"/>
	<line class="st28" x1="50.4" y1="156.7" x2="215.1" y2="156.7"/>
	<line class="st28" x1="50.8" y1="170.9" x2="215.1" y2="170.9"/>
	<line class="st28" x1="50.8" y1="185" x2="215.1" y2="185"/>
	<line class="st28" x1="50.8" y1="199.1" x2="215.1" y2="199.1"/>
	<line class="st28" x1="50.8" y1="213.3" x2="215.1" y2="213.3"/>
	<line class="st28" x1="50.8" y1="227.4" x2="215.1" y2="227.4"/>
	<line class="st28" x1="50.4" y1="241.6" x2="215.1" y2="241.6"/>
	<rect x="61.8" y="227.6" class="st29" width="9" height="13.7"/>
	<rect x="82.4" y="212.1" class="st29" width="9" height="29.3"/>
	<rect x="123.6" y="184.9" class="st29" width="9" height="56.5"/>
	<rect x="144.2" y="171.1" class="st29" width="9" height="70.3"/>
	<rect x="164.8" y="184.9" class="st29" width="9" height="56.5"/>
	<rect x="185.4" y="156.9" class="st29" width="9" height="84.5"/>
	<path class="st30" d="M121.4,197.3c-4.2-1.1-8.5-2.2-12.7-1.5c-0.5,0-1,0.2-1.4,0.6c-0.5,0.5-0.5,1.5,0,2.1c0.5,0.6,1.1,1,1.9,1.3
		c2,0.7,4.1,0.8,6.3,0.8c2.1,0,4.1,0.1,6.1-0.4c0.5-0.1,0.9-0.3,1.2-0.6C123.9,198.3,122.4,197.5,121.4,197.3z"/>
	<path class="st31" d="M152.8,207.4c-1.4,0.1-2.8,0-4.2-0.3c-1.2-0.3-2.4-0.6-3.6-1l-4.3-1.4c-2.3-0.7-4.6-1.5-6.8-2.5
		c-3.8-1.8-7.2-4.4-11.3-5.3c-0.7-0.1-1.7-0.2-2.1,0.5c-0.1,0.3-0.2,0.7-0.2,1l0,3c0,0.2,0,0.4,0.1,0.6c0.1,0.2,0.3,0.3,0.4,0.4
		c3.9,2.5,8.3,4.2,11.8,7.2c1.1,0.9,2,1.9,3.2,2.7c1.5,1.1,3.2,1.9,4.9,2.2c2.5,0.5,5.2,0.4,7.5,1.5c1,0.5,2,1.4,3.1,1.6
		c1,0.2,2-0.1,2.9-0.4c1.6-0.5,3.2-1,4.2-2.3c1.4-1.6,1.5-3.8,1.5-5.9c0-0.6,0.4-3,0-3.5c-0.5-0.6-1.3,0.3-1.8,0.6
		C156.6,207.1,154.6,207.4,152.8,207.4z"/>
	<path class="st30" d="M165.6,192c0,0,2.6,11.2,4.5,12.9s-13.6,5.6-13.6,5.6s3.3-12.2,1.7-14.3C156.7,194.1,165.6,192,165.6,192z"/>
	<path class="st32" d="M165.6,192c0,0,2.6,11.2,4.5,12.9s-13.6,5.6-13.6,5.6s3.3-12.2,1.7-14.3C156.7,194.1,165.6,192,165.6,192z"/>
	<path class="st33" d="M140.5,337.9c-0.9,0.1-1.7,0-2.6,0.1c-1.2,0.1-2.3,0.7-3.1,1.6c-0.3,0.3-0.4,0.6-0.5,1c0,0.3,0.2,0.5,0.4,0.7
		c0.8,0.9,1.9,1.3,3.1,1.6c1.7,0.3,3.4,0.4,5.2,0.4c4.3,0,8.6,0,12.9,0.1c0.3-1.5,0.3-3.1-0.1-4.7c-0.1-0.4-0.3-0.8-0.5-1.2
		c-0.3-0.3-0.6-0.5-1-0.6l-2.7-1.3c-2.1-1-3.8-1.8-5.9-0.5C143.9,336.1,142.5,337.6,140.5,337.9z"/>
	<path class="st32" d="M140.5,337.9c-0.9,0.1-1.7,0-2.6,0.1c-1.2,0.1-2.3,0.7-3.1,1.6c-0.3,0.3-0.4,0.6-0.5,1c0,0.3,0.2,0.5,0.4,0.7
		c0.8,0.9,1.9,1.3,3.1,1.6c1.7,0.3,3.4,0.4,5.2,0.4c4.3,0,8.6,0,12.9,0.1c0.3-1.5,0.3-3.1-0.1-4.7c-0.1-0.4-0.3-0.8-0.5-1.2
		c-0.3-0.3-0.6-0.5-1-0.6l-2.7-1.3c-2.1-1-3.8-1.8-5.9-0.5C143.9,336.1,142.5,337.6,140.5,337.9z"/>
	<path class="st33" d="M168,348.7c0.1,0.5,0,1-0.1,1.4c-0.4,0.9-1.4,1.4-2.4,1.6c-4.3,1.2-8.9,1.3-13.4,1.4c-3.4,0.1-6.8,0.1-10-1.1
		c-0.6-0.2-1.2-0.6-1.7-1c-0.5-0.5-0.7-1.2-0.5-1.9c0.2-0.8,1.1-1.3,1.9-1.6l4.3-1.9l8.3-3.7c1-0.5,2.1-0.9,3.2-0.9
		c1.4,0,2.6,0.8,3.8,1.4c0.9,0.4,1.8,0.8,2.7,1.1c0.8,0.3,2,0.3,2.7,0.7C168.3,345,167.9,347.3,168,348.7z"/>
	<path class="st29" d="M142.1,266.6c-2.2,6.1-4.4,12.3-5.4,18.7c-0.4,2.3-0.6,4.6-1,6.9c-0.4,2.2-1,4.4-0.6,6.5
		c0.3,1.4,0.9,2.7,1.4,4.1c0.6,1.8,1,3.7,1.6,5.5c1,2.8,2.5,5.3,3.4,8.1c0.9,2.7,1.4,5.6,2.7,8.1c0.8,1.5,1.9,2.9,2.4,4.5
		c0.7,2.4,0.1,5.1-1.7,6.9c0.2,1,1.5,1.6,2.5,2l3.7,1.4c1.4,0.5,3,1,4.3,0.4c2-0.9,2.4-3.5,2.3-5.7c-0.2-5.3-1.5-10.4-2.7-15.6
		c-1.2-4.7-2.3-9.4-3.7-14.1c-0.6-1.9-1.2-3.8-1.6-5.8c-1.7-7.3-1.1-15,1.6-21.9c1.6-3.9,0.2-8.8,0.3-13l-5.3-1
		c-1-0.2-2.3-0.3-3,0.5C142.6,263.9,142.5,265.5,142.1,266.6z"/>
	<path class="st32" d="M142.1,266.6c-2.2,6.1-4.4,12.3-5.4,18.7c-0.4,2.3-0.6,4.6-1,6.9c-0.4,2.2-1,4.4-0.6,6.5
		c0.3,1.4,0.9,2.7,1.4,4.1c0.6,1.8,1,3.7,1.6,5.5c1,2.8,2.5,5.3,3.4,8.1c0.9,2.7,1.4,5.6,2.7,8.1c0.8,1.5,1.9,2.9,2.4,4.5
		c0.7,2.4,0.1,5.1-1.7,6.9c0.2,1,1.5,1.6,2.5,2l3.7,1.4c1.4,0.5,3,1,4.3,0.4c2-0.9,2.4-3.5,2.3-5.7c-0.2-5.3-1.5-10.4-2.7-15.6
		c-1.2-4.7-2.3-9.4-3.7-14.1c-0.6-1.9-1.2-3.8-1.6-5.8c-1.7-7.3-1.1-15,1.6-21.9c1.6-3.9,0.2-8.8,0.3-13l-5.3-1
		c-1-0.2-2.3-0.3-3,0.5C142.6,263.9,142.5,265.5,142.1,266.6z"/>
	<path class="st29" d="M167.1,263.8c-0.1,1.9-0.3,3.8-1.1,5.5c-0.5,1-1.3,1.9-1.9,2.9c-1.6,2.7-1.9,5.9-1.9,9
		c-0.1,3.2,0.1,6.4,0.2,9.6c0,1,0.1,2,0.3,2.9c0.2,0.8,0.5,1.6,0.7,2.4c0.5,2,0,4,0.3,6c0.2,1.5,0.8,3,1.2,4.4c0.7,2.3,1,4.6,0.9,7
		c-0.1,6.4,1.9,12.5,1.9,18.8c0,2.2-0.1,4.4,0.1,6.6c0.2,2.4,0.7,4.7,1,7.1c0.1,0.5,0.1,1.2-0.4,1.5c-0.3,0.2-0.7,0.3-1.1,0.3
		c-1.4,0.1-2.7,0-4-0.4c-1.2-0.4-2.2-1-3.4-1.4c-2.1-0.8-4.8-1-6-2.9c-0.1-0.2-0.2-0.4-0.2-0.5c0-0.5,0.6-0.9,0.9-1.3
		c0.2-0.3,0.2-0.6,0.2-1c0.1-2.5-1-4.9-1.8-7.3c-0.7-2.3-1.2-4.7-1.5-7.1c-0.8-5-1.6-10.1-0.7-15.1c0.2-1.2,0.5-2.6-0.3-3.6
		c-0.3-0.4-0.7-0.7-1.1-1c-0.9-0.8-1.4-2-1.4-3.2c0-3.9-1.8-7.9-2-11.8c-0.1-2.3,0-4.5-0.1-6.8c-0.3-6-2.2-11.8-4-17.5
		c-0.3-0.8-0.5-1.7-0.5-2.6c0-0.9,0.3-1.8,1-2.4c3-2.4,7.4-3.2,10.7-1.3c0.7,0.4,1.3,0.8,2,1.2C158.7,263.9,163.4,261.9,167.1,263.8
		z"/>
	
		<ellipse transform="matrix(0.1602 -0.9871 0.9871 0.1602 -55.9122 321.4054)" class="st30" cx="160.9" cy="193.6" rx="8.6" ry="8.6"/>
	<path class="st31" d="M141.8,264.2c0.4,0.4,0.8,0.6,1.3,0.8l2.6,1.2c0.4,0.2,0.9,0.4,1.3,0.5c0.6,0.1,1.2,0,1.7-0.1
		c6-1.1,12.2-1,18.1,0.3c1.9-2.9,2.1-6.6,1.6-10c-0.3-1.8-0.7-3.7-0.2-5.5c0.2-0.8,0.6-1.5,0.8-2.2c0.6-2.1-0.1-4.3,0.2-6.4
		c0.4-2.6,2.3-4.7,3.3-7.1c0.6-1.5,1-3,1.3-4.6c0.4-1.9,0.8-3.9,1.2-5.8c0.4-2.1,0.9-4.3,0.8-6.4c-0.1-3.3-1.3-6.5-2.5-9.5
		c-0.5-1.3-1.1-2.7-2.3-3.4c-1.5-0.8-3.3-0.3-4.9,0.3c-2,0.8-4.1,1.8-6.3,2.2c-0.9,0.2-2.2-0.1-3.1,0.1c-0.7,0.2-1.2,1.2-1.7,1.8
		c-2.4,3.3-4.2,7.1-5.2,11.1c-1,4-1.2,8.3-3.1,12.1c-0.4,0.8-0.9,1.6-1.4,2.4c-1.1,1.6-2.2,3.2-2.9,5c-1.1,2.8-1.1,5.9-1,8.9
		c0,0.5,0,1,0,1.5c0.1,3.4,0,6.8-0.2,10.2C141.3,262.5,141.3,263.5,141.8,264.2z"/>
	<path class="st30" d="M118.7,243c-4.3,0.1-8.7,0.3-12.7-1.3c-0.5-0.1-0.9-0.4-1.3-0.9c-0.4-0.6-0.1-1.5,0.4-2.1
		c0.6-0.5,1.3-0.8,2.1-0.8c2.1-0.3,4.2,0.1,6.3,0.6c2.1,0.4,4.1,0.8,5.9,1.7c0.4,0.2,0.8,0.5,1.1,0.9
		C121.4,242.5,119.7,243,118.7,243z"/>
	<path class="st32" d="M141.5,249.8c1,0,1.9,0,2.8-0.1c1.1,0,2.2-0.2,3.3-0.5c1.6-0.5,3-1.6,4.3-2.6c4.1-3.3,7.9-7,11.4-11
		c1.2-1.3,2.3-2.7,2.9-4.4c0.8-2,0.7-4.2,0.5-6.4c-0.1-1.4-0.2-2.8-0.9-4.1c-0.5-1.1-1.6-1.9-2.7-2.1l1.5,0.1
		c-1.4-0.9-3.2-0.8-4.9-0.6c-1.1,0.1-2.3,0.2-3.3,0.8c-1.3,0.7-2.1,2-2.7,3.2c-2.2,4.1-3.7,8.7-6.6,12.3c-0.4,0.5-0.8,1-1.3,1.4
		c-0.1,0.1-0.2,0.1-0.2,0.2c-1.1,1.6-2.2,3.2-2.9,5C141.5,243.7,141.5,246.8,141.5,249.8z"/>
	<path class="st31" d="M162.6,217c1.4-0.1,2.7,0.9,3.4,2.1c0.7,1.2,0.8,2.7,0.9,4.1c0.2,2.1,0.2,4.4-0.5,6.4c-0.6,1.6-1.8,3-2.9,4.4
		c-3.5,4-7.3,7.7-11.4,11c-1.3,1.1-2.7,2.1-4.3,2.6c-1.1,0.3-2.2,0.5-3.3,0.5c-4.2,0.2-8.5,0.1-12.5-1.3c-3.1-1.1-6-3.1-9.3-3.3
		c-0.8-0.1-1.7,0-2.4-0.4c-1.3-0.7-1.6-2.5-1.5-4c-0.1-0.6,0.3-1.1,0.9-1.3c0.1,0,0.2,0,0.2,0c6.6-0.8,13.5,0.9,19.9-1.1
		c1.4-0.5,2.9-1,4.2-1.7c0.6-0.3,1.2-0.6,1.8-1c0.5-0.4,0.9-0.8,1.3-1.4c2.9-3.6,4.4-8.2,6.6-12.3c0.7-1.3,1.5-2.5,2.7-3.2
		c1-0.5,2.2-0.7,3.3-0.8c1.7-0.1,3.5-0.3,4.9,0.6"/>
	<path class="st25" d="M167.3,195.3c-0.4,0.5-0.6,1.1-1.1,1.5s-1.2,0.7-1.7,0.4c-0.8-0.5-0.4-1.8-1-2.5c-0.3-0.4-0.9-0.5-1.3-0.9
		c-1-0.8-0.7-2.4-1.6-3.3s-2.2-0.7-3.3-0.3s-2.3,1-3.4,0.8c-1.6-0.3-2.5-2.1-3-3.8c-0.5-1.6-0.8-3.4,0-4.8c0.6-1.2,2-2,3.3-2.4
		s2.7-0.5,4.1-0.7c1.8-0.3,3.5-0.9,5.4-1.1c1.8-0.2,3.8,0.2,5.1,1.5c1.9,1.9,1.6,5.1,2.5,7.6c0.5,1.4,1.5,2.7,2.1,4.1
		c1,2.5,0.5,5.8-1.7,7.3c-0.3,0.3-0.8,0.4-1.2,0.4c-0.9-0.1-1.3-1.3-1.2-2.3C169.3,195,168.9,193.3,167.3,195.3z"/>
	<rect x="103" y="198.3" class="st29" width="9" height="43.1"/>
	<path class="st22" d="M93.6,199.6c-0.5,0.2-1,0.4-1.5,0.4c0.6-0.3,1-0.9,1.2-1.5c-0.5,0.3-1.1,0.5-1.7,0.7c-1-1.1-2.7-1.1-3.8-0.1
		c-0.7,0.7-1,1.6-0.8,2.6c-2.2-0.1-4.2-1.1-5.5-2.8c-0.2,0.4-0.4,0.9-0.4,1.4c0,0.9,0.4,1.7,1.2,2.2c-0.4,0-0.8-0.1-1.2-0.3v0
		c0,1.3,0.9,2.4,2.2,2.6c-0.2,0.1-0.5,0.1-0.7,0.1c-0.2,0-0.3,0-0.5-0.1c0.4,1.1,1.4,1.8,2.5,1.9c-1,0.7-2.1,1.1-3.3,1.1
		c-0.2,0-0.4,0-0.6,0c1.2,0.8,2.6,1.2,4.1,1.2c4.9,0,7.6-4.1,7.6-7.6c0-0.1,0-0.2,0-0.3C92.8,200.6,93.3,200.1,93.6,199.6z"/>
	<path class="st22" d="M132.8,170.8h-9.5c-0.3,0-0.6,0.3-0.6,0.6v9.5c0,0.3,0.3,0.6,0.6,0.6l0,0h4.7v-4.2h-1.3v-1.6h1.3v-1.1
		c0-1.4,1-2.1,2.2-2.1c0.6,0,1.2,0,1.4,0.1v1.4h-1c-0.7,0-0.8,0.3-0.8,0.8v1h1.6l-0.2,1.6h-1.4v4.2h3c0.3,0,0.6-0.3,0.6-0.6v-9.5
		C133.4,171.1,133.2,170.8,132.8,170.8z"/>
	<g>
		<path class="st22" d="M151,158.3c1.2,0,2.2,1,2.2,2.2v4.4c0,1.2-1,2.2-2.2,2.2h-4.4c-1.2,0-2.2-1-2.2-2.2v-4.4
			c0-1.2,1-2.2,2.2-2.2L151,158.3 M151,157.4h-4.4c-1.7,0-3.1,1.4-3.1,3.1v4.4c0,1.7,1.4,3.1,3.1,3.1h4.4c1.7,0,3.1-1.4,3.1-3.1
			v-4.4C154,158.8,152.7,157.4,151,157.4L151,157.4z"/>
		<path class="st22" d="M151.6,160.5c-0.4,0-0.7-0.3-0.7-0.7c0-0.4,0.3-0.7,0.7-0.7c0.4,0,0.7,0.3,0.7,0.7c0,0,0,0,0,0
			C152.3,160.2,152,160.5,151.6,160.5C151.6,160.5,151.6,160.5,151.6,160.5z M148.7,160.9c1,0,1.8,0.8,1.8,1.8c0,1-0.8,1.8-1.8,1.8
			c-1,0-1.8-0.8-1.8-1.8l0,0C147,161.7,147.8,160.9,148.7,160.9 M148.7,160.1c-1.5,0-2.7,1.2-2.7,2.7s1.2,2.7,2.7,2.7
			c1.5,0,2.7-1.2,2.7-2.7c0,0,0,0,0,0C151.4,161.3,150.2,160.1,148.7,160.1C148.7,160.1,148.7,160.1,148.7,160.1L148.7,160.1z"/>
	</g>
	<path class="st22" d="M195.8,153.4h-11.6c-0.8,0-1.4-0.6-1.4-1.4l0,0v-5.3c0-0.2,0.1-0.3,0.2-0.4l6.1-5.8c0.5-0.5,1.3-0.5,1.8,0
		l5.9,5.5c0.3,0.3,0.5,0.7,0.5,1.1v4.9C197.2,152.7,196.6,153.4,195.8,153.4L195.8,153.4z"/>
	<path class="st32" d="M182.7,146.7h14.3l0,0v5.8c0,0.5-0.4,0.9-0.9,0.9c0,0,0,0,0,0h-12.6c-0.5,0-0.9-0.4-0.9-0.9l0,0V146.7
		L182.7,146.7L182.7,146.7z"/>
	<path class="st34" d="M182.7,146.4"/>
	<path class="st29" d="M185.4,142.2h9.1c0.4,0,0.8,0.4,0.8,0.8v9.1c0,0.4-0.4,0.8-0.8,0.8h-9.1c-0.4,0-0.8-0.4-0.8-0.8V143
		C184.6,142.5,185,142.2,185.4,142.2z"/>
	<polygon class="st32" points="195.3,147 195.3,152.8 184.6,152.8 184.6,147 190,149.5 	"/>
	<path class="st22" d="M190,149.9l-6.8-3.3c-0.1-0.1-0.3,0-0.4,0.1c0,0,0,0.1,0,0.1v5.7c0,0.5,0.4,0.9,0.9,0.9l0,0h12.7
		c0.5,0,0.9-0.4,0.9-0.9c0,0,0,0,0,0v-5.6c0-0.2-0.2-0.3-0.3-0.3c-0.1,0-0.1,0-0.1,0L190,149.9z"/>
	<rect x="185.5" y="143.1" class="st24" width="3" height="0.4"/>
	<rect x="185.3" y="144.7" class="st24" width="8.8" height="0.2"/>
	<rect x="185.3" y="145.5" class="st24" width="8.8" height="0.2"/>
	<rect x="185.3" y="146.3" class="st24" width="8.8" height="0.2"/>
</g>
</svg>
